<svg width="64" height="64" viewBox="0 0 64 64" fill="none" xmlns="http://www.w3.org/2000/svg">
<path d="M13.8538 55.5208H50.3122C53.1887 55.5208 55.5205 53.189 55.5205 50.3125V13.8541C55.5205 10.9777 53.1887 8.64581 50.3122 8.64581H13.8538C10.9774 8.64581 8.64551 10.9777 8.64551 13.8541V50.3125C8.64551 53.189 10.9774 55.5208 13.8538 55.5208ZM13.8538 55.5208L42.4997 26.875L55.5205 39.8958M26.8747 22.9687C26.8747 25.1261 25.1258 26.875 22.9684 26.875C20.8111 26.875 19.0622 25.1261 19.0622 22.9687C19.0622 20.8114 20.8111 19.0625 22.9684 19.0625C25.1258 19.0625 26.8747 20.8114 26.8747 22.9687Z" stroke="#1E1E1E" stroke-width="4" stroke-linecap="round" stroke-linejoin="round"/>
</svg>
